<?xml version="1.0" encoding="UTF-8"?>
<svg xmlns="http://www.w3.org/2000/svg" viewBox="0 0 87.12 133.38">
  <defs>
    <style>
      .cls-1 {
        fill: #ac624d;
      }

      .cls-1, .cls-2, .cls-3 {
        stroke-width: 0px;
      }

      .cls-2 {
        fill: #fbc42d;
      }

      .cls-4 {
        isolation: isolate;
      }

      .cls-3 {
        fill: #ffe382;
      }

      .cls-5 {
        mix-blend-mode: multiply;
      }
    </style>
  </defs>
  <g class="cls-4">
    <g id="Layer_2" data-name="Layer 2">
      <g id="Icons">
        <g>
          <g class="cls-5">
            <g class="cls-5">
              <path class="cls-3" d="M64.61,37.32h-21.24c-12.43,0-22.51,10.08-22.51,22.51v19.02c0,8.52,4.74,15.94,11.72,19.76v16.45c0,10.12,8.2,18.32,18.32,18.32h6.18c10.12,0,18.32-8.2,18.32-18.32v-16.45c6.99-3.82,11.72-11.24,11.72-19.76v-19.02c0-12.43-10.08-22.51-22.51-22.51Z"/>
            </g>
            <g class="cls-5">
              <circle class="cls-3" cx="53.99" cy="18.69" r="18.69"/>
            </g>
          </g>
          <g>
            <g class="cls-5">
              <path class="cls-1" d="M43.75,37.32h-21.24C10.08,37.32,0,47.4,0,59.83v19.02c0,8.52,4.74,15.94,11.72,19.76v16.45c0,10.12,8.2,18.32,18.32,18.32h6.18c10.12,0,18.32-8.2,18.32-18.32v-16.45c6.99-3.82,11.72-11.24,11.72-19.76v-19.02c0-12.43-10.08-22.51-22.51-22.51Z"/>
            </g>
            <g class="cls-5">
              <circle class="cls-2" cx="33.13" cy="18.69" r="18.69"/>
            </g>
          </g>
        </g>
      </g>
    </g>
  </g>
</svg>