<?xml version="1.0" encoding="UTF-8"?>
<svg xmlns="http://www.w3.org/2000/svg" viewBox="0 0 80.52 133.38">
  <defs>
    <style>
      .cls-1 {
        fill: #ac624d;
      }

      .cls-1, .cls-2, .cls-3 {
        stroke-width: 0px;
      }

      .cls-2 {
        fill: #fbc42d;
      }

      .cls-4 {
        isolation: isolate;
      }

      .cls-3 {
        fill: #ffe382;
      }

      .cls-5 {
        mix-blend-mode: multiply;
      }
    </style>
  </defs>
  <g class="cls-4">
    <g id="Layer_2" data-name="Layer 2">
      <g id="Icons">
        <g>
          <g class="cls-5">
            <path class="cls-1" d="M58,37.32h-21.24c-12.43,0-22.51,10.08-22.51,22.51v19.02c0,8.52,4.74,15.94,11.72,19.76v16.45c0,10.12,8.2,18.32,18.32,18.32h6.18c10.12,0,18.32-8.2,18.32-18.32v-16.45c6.99-3.82,11.72-11.24,11.72-19.76v-19.02c0-12.43-10.08-22.51-22.51-22.51Z"/>
          </g>
          <g class="cls-5">
            <circle class="cls-2" cx="47.38" cy="18.69" r="18.69"/>
          </g>
          <g>
            <path class="cls-2" d="M60.89,71.38c0,5.3-2.14,10.08-5.6,13.54-1.33,1.33-2.84,2.45-4.51,3.35-2.69,1.45-5.76,2.26-9.04,2.26h-21.39c-10.58,0-19.16-8.58-19.16-19.16,0-.41.01-.82.04-1.23.13-2.13.62-4.18,1.41-6.06.97-2.35,2.39-4.48,4.17-6.24,3.46-3.47,8.25-5.61,13.54-5.61h21.39c10.57,0,19.15,8.58,19.15,19.15Z"/>
            <g class="cls-5">
              <path class="cls-2" d="M50.78,88.28c-2.69,1.45-5.76,2.26-9.04,2.26h-2.63c-.07-.21-.13-.42-.17-.64-1.78-8.96-4.88-16.28-8.82-21.07-2.14-2.64-4.54-4.52-7.1-5.51-4.9-1.88-9.16.15-11.86,2.18-2.64,1.98-6.39,1.45-8.38-1.2-.05-.07-.11-.15-.15-.22-1.81-2.62-1.24-6.22,1.35-8.16,6.14-4.62,13.04-6.28,19.77-4.84,1.19.25,2.37.6,3.55,1.05.07.03.15.06.22.09,11.15,4.4,19.58,17.26,23.16,35.34.05.24.08.47.1.7Z"/>
            </g>
            <circle class="cls-3" cx="15.44" cy="64.1" r="15.44"/>
          </g>
        </g>
      </g>
    </g>
  </g>
</svg>