<?xml version="1.0" encoding="UTF-8"?>
<svg xmlns="http://www.w3.org/2000/svg" viewBox="0 0 99.94 112.75">
  <defs>
    <style>
      .cls-1 {
        fill: #ac624d;
      }

      .cls-1, .cls-2 {
        stroke-width: 0px;
      }

      .cls-3 {
        isolation: isolate;
      }

      .cls-2 {
        fill: #ffe382;
      }

      .cls-4 {
        mix-blend-mode: multiply;
      }
    </style>
  </defs>
  <g class="cls-3">
    <g id="Layer_2" data-name="Layer 2">
      <g id="Icons">
        <g>
          <g class="cls-4">
            <path class="cls-2" d="M73.72,105.56c15.79-4.78,26.23-16.8,26.23-30.2v-16.25s0-43.98,0-43.98c0-8.36-8.55-15.14-19.09-15.14H19.09C8.55,0,0,6.78,0,15.14v43.95s0,16.28,0,16.28c0,13.4,10.43,25.42,26.23,30.2l23.74,7.19,23.74-7.19Z"/>
          </g>
          <g class="cls-4">
            <g>
              <path class="cls-1" d="M31.92,67.46c1.3,0,2.43.82,2.88,2.04,2.46,6.68,7.88,10.61,16.63,10.61,10.83,0,15.21-4.99,15.21-11.8s-2.92-10.34-16.54-13.62c-15.69-3.77-19.58-8.51-19.58-16.54s6.33-16.18,20.07-16.18c11.6,0,18.08,5.97,20.41,13.03.65,1.97-.83,4-2.91,4h0c-1.29,0-2.44-.82-2.88-2.04-1.66-4.61-5.87-9.4-14.87-9.4-10.58,0-13.62,5.23-13.62,10.1,0,5.6,2.92,8.39,14.96,11.31,17.15,4.14,21.41,9.73,21.41,18.85,0,11.07-9,17.88-21.77,17.88-12.08,0-19.54-5.54-22.39-14.2-.66-1.99.8-4.05,2.89-4.05h.1Z"/>
              <path class="cls-1" d="M51.32,88.21c-12.59,0-21.39-5.65-24.77-15.92-.56-1.71-.27-3.59.78-5.04,1.05-1.46,2.69-2.29,4.49-2.29h.1c2.32,0,4.42,1.48,5.23,3.67,2.19,5.96,7,8.98,14.29,8.98,8.43,0,12.71-3.13,12.71-9.3,0-4.75-.71-7.84-14.63-11.19-15.67-3.77-21.5-8.91-21.5-18.97,0-9.3,6.98-18.68,22.57-18.68,11.22,0,19.74,5.51,22.79,14.74.55,1.68.27,3.54-.77,4.98-1.04,1.44-2.73,2.31-4.51,2.31-2.33,0-4.43-1.48-5.23-3.69-1.27-3.53-4.48-7.75-12.51-7.75-5.07,0-11.12,1.32-11.12,7.6,0,3.56.88,5.93,13.05,8.88,16.78,4.05,23.32,10.01,23.32,21.28,0,12.19-9.75,20.38-24.27,20.38ZM31.82,69.96c-.18,0-.33.08-.44.22-.07.09-.16.28-.08.54,2.69,8.16,9.61,12.48,20.02,12.48,11.71,0,19.27-6.04,19.27-15.38,0-7.6-3.11-12.47-19.5-16.42-10.95-2.65-16.88-5.63-16.88-13.74,0-2.96,1.16-12.6,16.12-12.6,8.41,0,14.69,4.03,17.22,11.05.08.23.29.38.53.38.25,0,.4-.15.46-.24.07-.1.15-.27.08-.48-2.37-7.19-8.95-11.31-18.04-11.31-12.97,0-17.57,7.37-17.57,13.68,0,5.59,1.3,10.18,17.67,14.11,13.97,3.37,18.46,7.27,18.46,16.05,0,4.3-1.73,14.3-17.71,14.3-9.46,0-16.03-4.24-18.98-12.25-.09-.24-.3-.4-.54-.4h-.1Z"/>
            </g>
          </g>
          <g class="cls-4">
            <path class="cls-1" d="M50.93,97.18c-3.31,0-6-2.69-6-6V16.5c0-3.31,2.69-6,6-6s6,2.69,6,6v74.69c0,3.31-2.69,6-6,6Z"/>
          </g>
        </g>
      </g>
    </g>
  </g>
</svg>