<?xml version="1.0" encoding="utf-8"?>
<!-- Generator: Adobe Illustrator 28.0.0, SVG Export Plug-In . SVG Version: 6.00 Build 0)  -->
<svg version="1.1" id="Layer_1" xmlns="http://www.w3.org/2000/svg" xmlns:xlink="http://www.w3.org/1999/xlink" x="0px" y="0px"
	 viewBox="0 0 459.8 146.7" style="enable-background:new 0 0 459.8 146.7;" xml:space="preserve">
<style type="text/css">
	.st0{fill:#4F352E;}
	.st1{fill:#F2F2F3;}
	.st2{fill:#F8BF2A;}
	.st3{fill:#FEDF80;}
	.st4{clip-path:url(#SVGID_00000134248762391143532170000000867785544901768127_);fill:#4F352E;}
</style>
<g>
	<path d="M46.2,144c-3.8,0-6.1-1.2-7-1.7c-0.5-1-1.1-4.2-1.2-6.3c0.2-0.3,0.9-0.4,1.1-0.1c0.7,2.3,2.5,6.7,7.7,6.7
		c3.7,0,5.6-2.5,5.6-5.1c0-2-0.4-4.2-3.7-6.3l-4.2-2.8c-2.2-1.5-4.8-4-4.8-7.7c0-4.2,3.3-7.7,9.1-7.7c1.4,0,3,0.3,4.2,0.6
		c0.6,0.2,1.2,0.3,1.6,0.3c0.4,1.1,0.8,3.6,0.8,5.4c-0.2,0.3-0.9,0.4-1.1,0.1c-0.6-2.1-1.8-5-6.1-5c-4.4,0-5.3,2.9-5.3,5
		c0,2.6,2.1,4.5,3.8,5.5l3.6,2.2c2.8,1.7,5.6,4.3,5.6,8.6C55.7,140.6,52,144,46.2,144L46.2,144z"/>
	<path d="M73.6,125.8c0.4,0.3,0.7,1,0.7,1.8c0,0.8-0.4,1.7-1,1.7c-0.2,0-0.4-0.1-0.6-0.3c-1-1.2-2.6-2.4-4.5-2.4
		c-3.1,0-6.2,2.5-6.2,7.2c0,3.5,2.4,7.6,7.2,7.6c2.6,0,3.9-1.2,5-2.7c0.4-0.1,0.8,0.2,0.8,0.6c-1.5,3.3-4.9,4.6-7.5,4.6
		c-2.4,0-4.6-0.8-6.1-2.3c-1.6-1.5-2.6-3.7-2.6-6.6c0-4.8,3.4-10,10.8-10C70.7,125,72.4,125.3,73.6,125.8L73.6,125.8z"/>
	<path d="M78.3,118.1c0-2.6,0-2.9-1.4-3.7l-0.4-0.3c-0.2-0.1-0.2-0.8,0-0.9c1.1-0.4,3.2-1,4.8-1.9c0.2,0,0.4,0.1,0.4,0.3
		c0,1.3-0.1,3.6-0.1,5.5v9.4c0,0.4,0,0.8,0.2,0.8c1.6-1.2,3.8-2.3,6-2.3c4.2,0,5.8,2.6,5.8,5.8v7.5c0,3.2,0.1,3.7,1.7,3.9l1.2,0.1
		c0.3,0.2,0.2,1-0.1,1.1c-1.6-0.1-2.9-0.1-4.5-0.1c-1.6,0-2.9,0-4.2,0.1c-0.3-0.1-0.4-0.9-0.1-1.1l0.9-0.1c1.7-0.3,1.7-0.7,1.7-3.9
		v-6.4c0-2.9-1.4-4.8-4.2-4.8c-1.5,0-2.7,0.5-3.5,1.2c-0.8,0.7-0.9,0.9-0.9,2.5v7.5c0,3.2,0.1,3.7,1.7,3.9l0.9,0.1
		c0.3,0.2,0.2,1-0.1,1.1c-1.3-0.1-2.6-0.1-4.2-0.1c-1.6,0-2.9,0-4.4,0.1c-0.3-0.1-0.4-0.9-0.1-1.1l1.1-0.1c1.7-0.2,1.7-0.7,1.7-3.9
		V118.1L78.3,118.1z"/>
	<path d="M106.3,126.4c-2.9,0-5.1,2.8-5.1,7.7c0,4.1,1.8,8.4,5.8,8.4c3.9,0,5.1-4.1,5.1-7.5C112,131.2,110.5,126.4,106.3,126.4
		L106.3,126.4z M115.9,134.3c0,5.6-3.8,9.6-9.4,9.6c-5.1,0-9.2-3.6-9.2-9.2c0-5.6,4.2-9.6,9.5-9.6
		C111.8,125,115.9,128.8,115.9,134.3L115.9,134.3z"/>
	<path d="M127,126.4c-2.9,0-5.1,2.8-5.1,7.7c0,4.1,1.8,8.4,5.8,8.4c3.9,0,5.1-4.1,5.1-7.5C132.8,131.2,131.3,126.4,127,126.4
		L127,126.4z M136.6,134.3c0,5.6-3.8,9.6-9.4,9.6c-5.1,0-9.2-3.6-9.2-9.2c0-5.6,4.2-9.6,9.5-9.6C132.6,125,136.6,128.8,136.6,134.3
		L136.6,134.3z"/>
	<path d="M143.8,138.2c0,3.2,0.1,3.7,1.7,3.9l1.1,0.1c0.3,0.2,0.2,1-0.1,1.1c-1.5-0.1-2.8-0.1-4.3-0.1c-1.6,0-2.9,0-4.3,0.1
		c-0.3-0.1-0.4-0.9-0.1-1.1l1-0.1c1.7-0.2,1.7-0.7,1.7-3.9v-20.2c0-2.6,0-2.9-1.4-3.7l-0.4-0.3c-0.2-0.1-0.2-0.8,0-0.9
		c1.1-0.4,3.2-1,4.8-1.9c0.2,0,0.4,0.1,0.4,0.3c0,1.3-0.1,3.6-0.1,5.5V138.2L143.8,138.2z"/>
	<path d="M165.8,126.4c-2.9,0-5.1,2.8-5.1,7.7c0,4.1,1.8,8.4,5.8,8.4c3.9,0,5.1-4.1,5.1-7.5C171.6,131.2,170.1,126.4,165.8,126.4
		L165.8,126.4z M175.4,134.3c0,5.6-3.8,9.6-9.4,9.6c-5.1,0-9.2-3.6-9.2-9.2c0-5.6,4.2-9.6,9.5-9.6
		C171.4,125,175.4,128.8,175.4,134.3L175.4,134.3z"/>
	<path d="M183.6,127.5c-0.8,0-0.8,0.1-0.8,1.3v9.4c0,3.2,0.1,3.7,1.7,3.9l1.6,0.1c0.3,0.2,0.2,1-0.1,1.1c-2-0.1-3.3-0.1-4.9-0.1
		c-1.6,0-2.9,0-4.3,0.1c-0.3-0.1-0.4-0.9-0.1-1.1l1-0.1c1.7-0.2,1.7-0.7,1.7-3.9v-9.4c0-1.2,0-1.3-0.9-1.3h-1.6
		c-0.3-0.2-0.3-0.6-0.1-0.8l1.9-0.9c0.4-0.2,0.7-0.4,0.7-0.9c0-2.6,0.3-5.4,1.4-7.9c1.1-2.5,3.6-5.7,8-5.7c2.4,0,4.4,1.1,4.4,2.7
		c0,0.9-0.8,1.6-1.7,1.6c-0.5,0-0.8-0.2-1.1-0.5c-0.8-1-2.1-2-3.6-2c-1.4,0-2.5,0.8-3.2,2.5c-0.8,2.1-1,5.3-1,7.5v1.3
		c0,1.2,0,1.2,0.8,1.2h5.1c0.5,0.4,0.2,1.7-0.3,1.9H183.6L183.6,127.5z"/>
	<path d="M205.3,136.6c0,4.7,0.1,5.3,2.9,5.6l1.2,0.1c0.3,0.2,0.2,1-0.1,1.1c-2.5-0.1-4-0.1-5.8-0.1c-1.9,0-3.5,0-5.4,0.1
		c-0.3-0.1-0.4-0.8-0.1-1.1l0.9-0.1c2.6-0.4,2.7-0.9,2.7-5.6v-16.5c0-3.8-0.1-4.6-2.1-4.8l-1.6-0.2c-0.3-0.3-0.3-0.9,0.1-1.1
		c2.4-0.3,5.1-0.4,8.8-0.4c3.7,0,6.5,0.5,8.6,1.8c2.1,1.3,3.6,3.6,3.6,6.7c0,4.1-2.5,6.2-4.5,7.1c-2,0.9-4.3,1.3-6.2,1.3
		c-0.3-0.1-0.3-0.8,0-0.9c4.8-0.9,6.6-3.6,6.6-7.5c0-4.3-2.5-7.1-7.2-7.1c-2.4,0-2.4,0.2-2.4,1.6V136.6L205.3,136.6z"/>
	<path d="M226.5,136.7c0,3.1,0.8,5.1,4.2,5.1c1.2,0,2.6-0.5,3.6-1.3c0.6-0.5,0.9-1.2,0.9-2.6v-7.3c0-2.9-0.3-3-1.7-3.5l-0.6-0.2
		c-0.3-0.2-0.3-0.8,0-1c1.8,0,4.2-0.4,5.2-0.8c0.2,0,0.4,0.1,0.4,0.3c-0.1,0.8-0.1,2.2-0.1,3.9v7.5c0,3.5,0.1,4.9,1.4,4.9
		c0.5,0,1.1-0.1,1.7-0.2c0.3,0.2,0.3,1.1,0,1.3c-1.7,0.4-4.3,0.8-5.8,1.7c-0.2,0-0.4-0.1-0.5-0.3v-1.8c0-0.4-0.1-0.6-0.4-0.6
		c-1.3,0.8-3.5,2.3-6.2,2.3c-3.9,0-5.4-2-5.4-5.6v-7.5c0-2.8,0-3.2-1.3-3.8l-0.5-0.2c-0.3-0.2-0.2-0.8,0.1-1c2.1,0,3.8-0.4,4.8-0.8
		c0.3,0,0.4,0.1,0.4,0.3c-0.1,0.8-0.1,1.7-0.1,3.9V136.7L226.5,136.7z"/>
	<path d="M247.7,137.2c0,1.6,0.4,2.9,1.1,3.9c0.8,0.9,2,1.5,3.4,1.5c4.2,0,5.8-3.6,5.8-7.4c0-4.6-2.4-8.2-6.8-8.2
		c-1.3,0-2.4,0.3-3,0.7c-0.4,0.3-0.5,0.8-0.5,2.5V137.2L247.7,137.2z M244.4,118.1c0-2.6,0-2.9-1.4-3.7l-0.4-0.3
		c-0.2-0.1-0.2-0.8,0-0.9c1-0.4,3.2-1,4.9-1.9c0.2,0,0.4,0.1,0.4,0.3c-0.1,1.6-0.2,3.6-0.2,5.5v8.4c0,0.8,0.2,0.9,0.4,0.9
		c1.2-0.7,2.9-1.5,5.1-1.5c5.1,0,8.5,3.8,8.5,8.8c0,5.9-4.3,10.1-10.3,10.1c-1.7,0-2.9-0.3-3.8-0.6c-0.9-0.3-1.5-0.6-1.9-0.6
		c-0.4,0-0.7,0.4-0.9,0.7c0,0-0.1,0-0.2,0c-0.2,0-0.4-0.1-0.4-0.3c0-0.6,0.1-1.5,0.1-3.8V118.1L244.4,118.1z"/>
	<path d="M268.9,138.2c0,3.2,0.1,3.7,1.7,3.9l1.1,0.1c0.3,0.2,0.2,1-0.1,1.1c-1.5-0.1-2.8-0.1-4.3-0.1c-1.6,0-2.9,0-4.3,0.1
		c-0.3-0.1-0.4-0.9-0.1-1.1l1-0.1c1.7-0.2,1.7-0.7,1.7-3.9v-20.2c0-2.6,0-2.9-1.4-3.7l-0.4-0.3c-0.2-0.1-0.2-0.8,0-0.9
		c1.1-0.4,3.2-1,4.8-1.9c0.2,0,0.4,0.1,0.4,0.3c0,1.3-0.1,3.6-0.1,5.5V138.2L268.9,138.2z"/>
	<path d="M280.2,117.7c0,1.6-1.1,2.3-2.4,2.3c-1.4,0-2.3-1-2.3-2.2c0-1.5,1.1-2.4,2.4-2.4S280.2,116.5,280.2,117.7L280.2,117.7z
		 M276.5,130.4c0-1.7,0-2-1.2-2.8l-0.4-0.3c-0.2-0.2-0.2-0.7,0-0.8c1-0.4,3.6-1.5,4.6-2.2c0.2,0,0.4,0.1,0.4,0.3
		c-0.1,1.6-0.2,3.7-0.2,5.5v8c0,3.2,0.1,3.7,1.7,3.9l0.9,0.1c0.3,0.2,0.2,1-0.1,1.1c-1.3-0.1-2.6-0.1-4.2-0.1c-1.6,0-2.9,0-4.2,0.1
		c-0.3-0.1-0.4-0.9-0.1-1.1l0.9-0.1c1.7-0.2,1.7-0.7,1.7-3.9V130.4L276.5,130.4z"/>
	<path d="M298.4,125.8c0.4,0.3,0.7,1,0.7,1.8c0,0.8-0.4,1.7-1,1.7c-0.2,0-0.4-0.1-0.6-0.3c-1-1.2-2.6-2.4-4.5-2.4
		c-3.1,0-6.2,2.5-6.2,7.2c0,3.5,2.4,7.6,7.2,7.6c2.6,0,3.9-1.2,5-2.7c0.4-0.1,0.8,0.2,0.8,0.6c-1.5,3.3-4.9,4.6-7.5,4.6
		c-2.4,0-4.6-0.8-6.1-2.3c-1.6-1.5-2.6-3.7-2.6-6.6c0-4.8,3.4-10,10.8-10C295.5,125,297.2,125.3,298.4,125.8L298.4,125.8z"/>
	<path d="M319.2,128.8c-2.1,0-2.2,0.1-2.2,1.4v6.3c0,4.7,0.2,5.3,2.7,5.6l1.3,0.1c0.3,0.2,0.2,1-0.1,1.1c-2.4-0.1-3.9-0.1-5.7-0.1
		c-1.9,0-3.4,0.1-5.2,0.1c-0.3-0.1-0.4-0.8-0.1-1.1l0.8-0.1c2.5-0.4,2.6-0.9,2.6-5.6v-16.1c0-4.7-0.3-5.4-2.6-5.6l-1.2-0.1
		c-0.3-0.2-0.2-1,0.1-1.1c2.2,0,3.7,0.1,5.6,0.1c1.7,0,3.3,0,5.2-0.1c0.3,0.1,0.4,0.9,0.1,1.1l-0.8,0.1c-2.6,0.3-2.7,0.9-2.7,5.6
		v5.1c0,1.4,0.1,1.4,2.2,1.4H332c2.1,0,2.2,0,2.2-1.4v-5.1c0-4.7-0.1-5.4-2.7-5.6l-0.8-0.1c-0.3-0.2-0.2-1,0.1-1.1
		c2.1,0.1,3.6,0.1,5.4,0.1c1.7,0,3.3,0,5.3-0.1c0.3,0.1,0.4,0.9,0.1,1.1l-0.9,0.1c-2.6,0.3-2.7,0.9-2.7,5.6v16.1
		c0,4.7,0.1,5.3,2.7,5.6l1.1,0.1c0.3,0.2,0.2,1-0.1,1.1c-2.1-0.1-3.7-0.1-5.4-0.1c-1.8,0-3.4,0-5.4,0.1c-0.3-0.1-0.4-0.8-0.1-1.1
		l0.8-0.1c2.7-0.4,2.7-0.9,2.7-5.6v-6.3c0-1.3-0.1-1.4-2.2-1.4H319.2L319.2,128.8z"/>
	<path d="M350.3,130.5c3.3,0,4.3-0.2,4.6-0.4c0.1-0.1,0.3-0.3,0.3-0.8c0-1.2-0.8-2.8-3.4-2.8c-2.6,0-4.9,2.4-5,3.9
		c0,0.1,0,0.2,0.3,0.2H350.3L350.3,130.5z M347.5,131.8c-1.2,0-1.2,0.1-1.2,1.2c0,4.5,2.6,8.3,7.4,8.3c1.5,0,2.7-0.4,4.1-2.2
		c0.4-0.1,0.8,0.1,0.8,0.5c-1.5,3-4.7,4.2-7,4.2c-2.9,0-5.2-1.3-6.5-2.9c-1.3-1.7-1.9-3.8-1.9-5.8c0-5.5,3.6-10.1,9-10.1
		c3.8,0,6.3,2.6,6.3,5.3c0,0.6-0.1,1-0.2,1.2c-0.1,0.3-0.8,0.3-2.6,0.3H347.5L347.5,131.8z"/>
	<path d="M366.7,141.9c0.9,0,2.3-0.7,2.7-1.1c0.5-0.5,0.5-1.2,0.6-2.1l0.1-2.6c0-0.5-0.2-0.6-0.4-0.6c-0.3,0-1,0.2-1.8,0.4
		c-2.6,0.9-3.9,1.6-3.9,3.3C363.9,139.9,364.4,141.9,366.7,141.9L366.7,141.9z M369.4,134c0.7-0.2,0.8-0.6,0.8-1.3l0-2.1
		c0-1.7-0.5-3.9-3.3-3.9c-1.2,0-2.8,0.6-2.9,2c0,0.7-0.1,1.3-0.4,1.5c-0.7,0.5-1.9,0.8-2.5,0.8c-0.4,0-0.6-0.2-0.6-0.6
		c0-2.3,5-5.5,8.3-5.5c3.2,0,4.8,1.9,4.6,5.2l-0.3,7.8c-0.1,2.1,0.3,3.9,2.1,3.9c0.4,0,0.8-0.1,1.1-0.3c0.2-0.1,0.4-0.3,0.6-0.3
		c0.2,0,0.3,0.3,0.3,0.6c0,0.2-1.6,2-3.8,2c-1.1,0-2.1-0.4-2.9-1.4c-0.2-0.3-0.4-0.6-0.7-0.6c-0.3,0-0.8,0.4-1.7,0.9
		c-1,0.5-2,1.1-3.2,1.1c-1.3,0-2.4-0.4-3.1-1c-0.8-0.8-1.4-1.9-1.4-3.1c0-1.7,0.8-2.8,3.7-3.8L369.4,134L369.4,134z"/>
	<path d="M384.5,138.2c0,3.2,0.1,3.7,1.7,3.9l1.1,0.1c0.3,0.2,0.2,1-0.1,1.1c-1.5-0.1-2.8-0.1-4.3-0.1c-1.6,0-2.9,0-4.3,0.1
		c-0.3-0.1-0.4-0.9-0.1-1.1l1-0.1c1.7-0.2,1.7-0.7,1.7-3.9v-20.2c0-2.6,0-2.9-1.4-3.7l-0.4-0.3c-0.2-0.1-0.2-0.8,0-0.9
		c1.1-0.4,3.2-1,4.8-1.9c0.2,0,0.4,0.1,0.4,0.3c0,1.3-0.1,3.6-0.1,5.5V138.2L384.5,138.2z"/>
	<path d="M394.3,127.5c-0.8,0-0.8,0.1-0.8,1.1v8.3c0,2.6,0.3,5,3.3,5c0.4,0,0.8-0.1,1.2-0.2c0.4-0.1,1-0.6,1.1-0.6
		c0.4,0,0.5,0.5,0.4,0.8c-0.8,0.9-2.4,2.1-4.7,2.1c-3.8,0-4.6-2.1-4.6-4.8v-10.2c0-1.2,0-1.3-0.9-1.3H388c-0.3-0.2-0.3-0.7-0.1-0.9
		c1.3-0.4,2.4-1,2.9-1.4c0.6-0.5,1.4-1.7,1.9-2.6c0.2-0.1,0.8-0.1,0.9,0.2v2c0,0.8,0,0.8,0.8,0.8h5c0.5,0.4,0.4,1.6,0,1.9H394.3
		L394.3,127.5z"/>
	<path d="M403.8,118.1c0-2.6,0-2.9-1.4-3.7l-0.4-0.3c-0.2-0.1-0.2-0.8,0-0.9c1.1-0.4,3.2-1,4.8-1.9c0.2,0,0.4,0.1,0.4,0.3
		c0,1.3-0.1,3.6-0.1,5.5v9.4c0,0.4,0,0.8,0.2,0.8c1.6-1.2,3.7-2.3,6-2.3c4.2,0,5.8,2.6,5.8,5.8v7.5c0,3.2,0.1,3.7,1.7,3.9l1.2,0.1
		c0.3,0.2,0.2,1-0.1,1.1c-1.6-0.1-2.9-0.1-4.5-0.1c-1.6,0-2.9,0-4.2,0.1c-0.3-0.1-0.4-0.9-0.1-1.1l0.9-0.1c1.7-0.3,1.7-0.7,1.7-3.9
		v-6.4c0-2.9-1.4-4.8-4.2-4.8c-1.5,0-2.7,0.5-3.5,1.2c-0.8,0.7-0.9,0.9-0.9,2.5v7.5c0,3.2,0.1,3.7,1.7,3.9l0.9,0.1
		c0.3,0.2,0.2,1-0.1,1.1c-1.3-0.1-2.6-0.1-4.2-0.1c-1.6,0-2.9,0-4.4,0.1c-0.3-0.1-0.4-0.9-0.1-1.1l1.1-0.1c1.7-0.2,1.7-0.7,1.7-3.9
		V118.1L403.8,118.1z"/>
	<polygon points="158.7,29 158.7,21.4 153.3,21.4 153.3,29 158.7,29 	"/>
	<polygon points="167.4,22.5 159.7,22.5 159.7,27.9 167.3,27.9 167.4,22.5 	"/>
	<polygon points="173.8,29 173.8,21.4 168.4,21.4 168.4,29 173.8,29 	"/>
	<path d="M166.2,6.5c0-1.5-1.2-2.8-2.7-2.8c-1.5,0-2.7,1.3-2.7,2.8l0,15h5.4L166.2,6.5L166.2,6.5z"/>
	<path d="M166.2,43.9c0,1.5-1.2,2.8-2.7,2.8c-1.5,0-2.7-1.3-2.7-2.8l0-15h5.4L166.2,43.9L166.2,43.9z"/>
	<path d="M158.7,6.5c0-1.5-1.2-2.8-2.7-2.8c-1.5,0-2.7,1.3-2.7,2.8l0,7.4h5.4L158.7,6.5L158.7,6.5z"/>
	<path d="M173.8,6.5c0-1.5-1.2-2.8-2.7-2.8c-1.5,0-2.7,1.3-2.7,2.8l0,7.4h5.4L173.8,6.5L173.8,6.5z"/>
	<path d="M158.7,43.9c0,1.5-1.2,2.8-2.7,2.8c-1.5,0-2.7-1.3-2.7-2.8l0-7.4h5.4L158.7,43.9L158.7,43.9z"/>
	<path d="M173.8,43.9c0,1.5-1.2,2.8-2.7,2.8c-1.5,0-2.7-1.3-2.7-2.8l0-7.4h5.4L173.8,43.9L173.8,43.9z"/>
	<path d="M145,20.4l14.9,0V15h-0.2l-14.6,0c-1.5,0-2.7,1.2-2.7,2.7C142.2,19.1,143.4,20.4,145,20.4L145,20.4
		C144.9,20.4,145,20.4,145,20.4C145,20.4,145,20.4,145,20.4"/>
	<path d="M145,35.5l14.9,0v-5.4h-0.2l-14.6,0c-1.5,0-2.7,1.2-2.7,2.7C142.2,34.2,143.4,35.4,145,35.5L145,35.5
		C144.9,35.5,145,35.5,145,35.5C145,35.5,145,35.5,145,35.5"/>
	<path d="M182.1,35.5l-14.9,0v-5.4h0.2l14.6,0c1.5,0,2.7,1.2,2.7,2.7C184.9,34.2,183.7,35.4,182.1,35.5L182.1,35.5
		C182.2,35.5,182.1,35.5,182.1,35.5C182.1,35.5,182.1,35.5,182.1,35.5"/>
	<path d="M145,27.9l7.3,0v-5.4H152l-7.1,0c-1.5,0-2.7,1.2-2.7,2.7C142.2,26.7,143.4,27.9,145,27.9L145,27.9
		C144.9,27.9,145,27.9,145,27.9C145,27.9,145,27.9,145,27.9"/>
	<path d="M182.1,27.9l-7.3,0v-5.4h0.2l7.1,0c1.5,0,2.7,1.2,2.7,2.7C184.9,26.7,183.7,27.9,182.1,27.9L182.1,27.9
		C182.2,27.9,182.1,27.9,182.1,27.9C182.1,27.9,182.1,27.9,182.1,27.9"/>
	<path d="M182.1,20.4l-14.9,0V15h0.2l14.6,0c1.5,0,2.7,1.2,2.7,2.7C184.9,19.1,183.7,20.4,182.1,20.4L182.1,20.4
		C182.2,20.4,182.1,20.4,182.1,20.4C182.1,20.4,182.1,20.4,182.1,20.4"/>
	<path d="M246.4,82.4l-1.7-0.2c-2.3-0.3-2.4-1-2.4-5.5V66.1c0-4.4-2.2-8.2-8.2-8.2c-3.2,0-6.3,1.5-8.6,3.3c-0.2-0.1-0.3-0.6-0.3-1.2
		V46.6c0-2.8,0.1-6,0.2-7.9c-0.1-0.3-0.4-0.4-0.6-0.4c-2.3,1.2-5.3,2.2-6.9,2.7c-0.3,0.2-0.3,1.1,0,1.3l0.6,0.4c1.9,1.1,2,1.5,2,5.3
		v28.7c0,1.6,0,2.8-0.1,3.6c-0.7,1.9-2.6,1.7-3.9,1.7c-5.7-0.1-6.4-3.4-6.4-7.1V63c0-1.3,0.1-1.5,1.1-1.5h4.8
		c0.6-0.4,0.7-2.1-0.1-2.7h-4.7c-1.1,0-1.1-0.1-1.1-1.2v-5.3c-0.3-0.4-1.3-0.2-1.5,0c-0.8,1.5-1.3,4.4-2.6,5.8
		c-0.5,0.6-2.1,1.3-3.9,1.9c-0.3,0.4-0.2,1.2,0.1,1.4h1.8c1.3,0,1.3,0.1,1.3,1.8v14.6c0.1,2.3,2.4,5.9,7.9,6.1c0,0,0,0,0,0
		c0.1,0,0.3,0,0.4,0c0.1,0,0.1,0,0.2,0c0.1,0,0.2,0,0.3,0c2.7,0,6.6,0,8.6,0c2.2,0,4.1,0.1,6,0.2c0.4-0.2,0.6-1.5,0.1-1.7l-1.3-0.2
		c-2.3-0.3-2.4-1-2.4-5.5V66c0-2.2,0.2-2.5,1.3-3.5c1.1-1,2.8-1.7,5-1.7c4.1,0,6,2.7,6,6.8v9.1c0,4.6-0.1,5.1-2.4,5.5l-1.3,0.2
		c-0.4,0.3-0.3,1.5,0.1,1.7c1.7-0.1,3.6-0.2,5.9-0.2c2.2,0,4.1,0.1,6.4,0.2C246.7,83.9,246.9,82.7,246.4,82.4L246.4,82.4z"/>
	<path d="M177,77.4c0,1.3-0.1,2.2-0.8,3c-0.6,0.6-2.6,1.6-3.8,1.6c-3.2,0-4-2.7-4-3.8c0.1-3.2,1.8-3.8,5.5-5.2
		c1.3-0.5,2.3-0.6,2.7-0.6c0.4,0,0.6,0.4,0.6,1.1L177,77.4L177,77.4z M200.8,82.5l-1.5-0.2c-2.3-0.3-2.4-0.9-2.4-5.5V47
		c0-2.8,0.1-5.9,0.2-7.8c-0.1-0.3-0.4-0.4-0.6-0.4c-2.3,1.2-5.2,2.1-6.8,2.6c-0.3,0.2-0.3,1.1,0,1.3l0.6,0.4
		c1.9,1.1,1.9,1.5,1.9,5.2v28.4c0,4.5-1,5.2-2.4,5.5c-0.4,0.1-0.8,0.1-1.2,0.2c-1.2,0.1-2.1,0-3-0.1c-3.8-0.5-4.1-2.7-4.1-5.8
		l0.4-10.9c0.2-4.7-2-7.4-6.5-7.4c-4.6,0-11.7,4.5-11.7,7.7c0,0.6,0.3,0.9,0.9,0.9c0.9,0,2.6-0.4,3.6-1.2c0.5-0.4,0.6-1.1,0.6-2.1
		c0.1-1.9,2.3-2.8,4-2.8c3.9,0,4.7,3.1,4.6,5.5l0,2.3c-0.1,0.9-0.4,1.5-1.1,1.7c-0.5,0.2-3.6,1-7.4,2.6c-3.9,1.7-5.3,3.6-5.3,6.1
		c0,1.8,0.8,3.3,2,4.4c1.1,0.9,2.6,1.4,4.4,1.4c1.8,0,3.1-0.8,4.5-1.6c1.3-0.7,2-1.3,2.5-1.3c0.4,0,0.7,0.5,1.2,0.9
		c1.3,1.1,2.6,1.3,3.9,1.3c2.7,0,5.5,0,6.6,0l0,0l6.1-0.1c2.2,0,6.1,0.2,6.1,0.2C201.1,83.9,201.3,82.8,200.8,82.5L200.8,82.5z"/>
	<path d="M39.4,58c0-3.9-0.1-11.2-1.2-13.1c-0.4-0.8-1.6-1.2-3.2-1.3l-1.6-0.1c-0.4-0.4-0.3-1.3,0.1-1.5c2.4,0.1,4.8,0.2,7.2,0.2
		c2.7,0,4.4-0.1,6.7-0.2c0.5,0.3,0.4,1.1,0.1,1.5L46,43.5c-1.6,0.1-2.8,0.7-3.2,1.5C42,47.1,42,54.4,42,58v7.2
		c0,5.5-0.9,11.4-4.4,15.2c-2.7,3-7.4,4.6-12.1,4.6c-4.4,0-8.8-0.8-11.9-3.5c-3.4-2.8-4.9-7.4-4.9-15v-15c0-6.6-0.1-7.7-3.8-8
		l-1.6-0.1c-0.4-0.3-0.3-1.3,0.1-1.5C6.5,42,8.6,42,11.2,42c2.6,0,4.7-0.1,7.8-0.2c0.4,0.2,0.5,1.3,0.1,1.5l-1.5,0.1
		c-3.7,0.3-3.8,1.4-3.8,8v13.7c0,10.2,3.2,17,12.9,17c9.2,0,12.7-7.2,12.7-16.9V58L39.4,58z"/>
	<path d="M70.8,74.4c0,6.7,0.1,7.6,3.8,7.9l2,0.2c0.4,0.3,0.3,1.4-0.1,1.6c-3.6-0.1-5.8-0.2-8.3-0.2c-2.5,0-4.8,0.1-8.8,0.2
		c-0.4-0.2-0.5-1.3,0-1.6l2.3-0.2c3.6-0.3,3.9-1.3,3.9-7.9V46c0-2,0-2-1.9-2h-3.5c-2.7,0-6.2,0.1-7.8,1.6c-1.5,1.4-2.2,2.8-2.9,4.4
		c-0.5,0.4-1.4,0.1-1.6-0.4c1-2.9,2-6.9,2.4-9.5c0.2-0.1,1-0.2,1.2,0c0.4,2,2.5,2,5.4,2h25.7c3.4,0,4-0.1,5-1.8
		c0.3-0.1,1-0.1,1.1,0.2c-0.7,2.6-1.1,7.7-1,9.6c-0.3,0.5-1.3,0.5-1.7,0.1c-0.2-1.6-0.6-3.9-1.6-4.6c-1.5-1.1-3.9-1.6-7.4-1.6h-4.5
		c-1.9,0-1.8,0.1-1.8,2.2V74.4L70.8,74.4z"/>
	<path d="M104.6,63.4c-3,0-3.2,0.1-3.2,2v9c0,6.7,0.3,7.6,3.9,7.9l1.8,0.2c0.4,0.3,0.3,1.4-0.1,1.6c-3.4-0.1-5.6-0.2-8.1-0.2
		c-2.7,0-4.9,0.1-7.4,0.2c-0.4-0.2-0.5-1.2-0.1-1.6l1.1-0.2c3.6-0.6,3.7-1.3,3.7-7.9V51.5c0-6.7-0.4-7.7-3.7-8l-1.7-0.1
		c-0.4-0.3-0.3-1.4,0.1-1.6c3.1,0.1,5.3,0.2,8,0.2c2.5,0,4.6-0.1,7.4-0.2c0.4,0.2,0.5,1.3,0.1,1.6l-1.2,0.1c-3.7,0.4-3.8,1.3-3.8,8
		v7.3c0,2,0.1,2,3.2,2h18.2c3,0,3.2-0.1,3.2-2v-7.3c0-6.7-0.1-7.6-3.9-8l-1.2-0.1c-0.4-0.3-0.2-1.4,0.1-1.6c2.9,0.1,5.1,0.2,7.7,0.2
		c2.5,0,4.6-0.1,7.5-0.2c0.4,0.2,0.5,1.3,0.1,1.6l-1.3,0.1c-3.7,0.4-3.8,1.3-3.8,8v22.9c0,6.7,0.1,7.5,3.8,7.9l1.5,0.2
		c0.4,0.3,0.3,1.4-0.1,1.6c-3-0.1-5.2-0.2-7.7-0.2c-2.6,0-4.9,0.1-7.7,0.2c-0.4-0.2-0.5-1.2-0.1-1.6l1.2-0.2
		c3.9-0.6,3.9-1.3,3.9-7.9v-9c0-1.9-0.1-2-3.2-2H104.6L104.6,63.4z"/>
	<path d="M147.2,65.8c4.7,0,6.1-0.3,6.6-0.6c0.2-0.1,0.4-0.4,0.4-1.2c0-1.8-1.2-4-4.9-4c-3.7,0-7,3.4-7,5.5c0,0.1,0,0.3,0.4,0.3
		H147.2L147.2,65.8z M143.3,67.7c-1.7,0-1.7,0.1-1.7,1.7c0,6.4,3.7,11.9,10.5,11.9c2.1,0,3.9-0.6,5.8-3.1c0.6-0.2,1.1,0.2,1.1,0.8
		c-2.1,4.3-6.7,5.9-10,5.9c-4.1,0-7.4-1.8-9.2-4.2c-1.9-2.5-2.7-5.5-2.7-8.2c0-7.8,5.1-14.3,12.8-14.3c5.5,0,9,3.7,9,7.6
		c0,0.9-0.1,1.4-0.3,1.7c-0.2,0.4-1.1,0.4-3.7,0.4H143.3L143.3,67.7z"/>
	<path d="M238.4,41.9c0.7,0,0.9-0.3,0.9-0.7c0-0.4-0.2-0.5-0.8-0.5h-0.9v1.2H238.4L238.4,41.9z M237.6,42.6v2.1h-0.7v-4.8h1.5
		c0.9,0,1.8,0.2,1.8,1.3c0,0.5-0.3,1-1,1.1v0c0.7,0.1,0.7,0.4,0.8,0.9c0.1,0.5,0.1,0.9,0.3,1.4h-0.9c-0.1-0.3-0.1-0.6-0.2-0.8
		c-0.1-0.4-0.1-0.8-0.3-1c-0.2-0.2-0.4-0.2-0.7-0.2H237.6L237.6,42.6z M241.8,42.4c0-1.8-1.5-3.3-3.3-3.3c-1.8,0-3.3,1.5-3.3,3.3
		c0,1.8,1.5,3.3,3.3,3.3C240.3,45.7,241.8,44.2,241.8,42.4L241.8,42.4z M234.4,42.4c0-2.2,1.8-4,4.1-4c2.2,0,4,1.8,4,4
		c0,2.2-1.8,4.1-4,4.1C236.2,46.4,234.4,44.6,234.4,42.4L234.4,42.4z"/>
	<path d="M272.3,63.4c-3,0-3.2,0.1-3.2,2v8.9c0,6.7,0.3,7.6,3.9,7.9l1.8,0.2c0.4,0.3,0.3,1.4-0.1,1.6c-3.4-0.1-5.6-0.2-8.1-0.2
		c-2.7,0-4.9,0.1-7.4,0.2c-0.4-0.2-0.5-1.2-0.1-1.6l1.1-0.2c3.6-0.6,3.7-1.3,3.7-7.9V51.5c0-6.7-0.4-7.7-3.7-8l-1.7-0.1
		c-0.4-0.3-0.3-1.4,0.1-1.6c3.1,0.1,5.3,0.2,8,0.2c2.5,0,4.6-0.1,7.4-0.2c0.4,0.2,0.5,1.3,0.1,1.6l-1.2,0.1c-3.7,0.4-3.8,1.3-3.8,8
		v7.3c0,2,0.1,2,3.2,2h18.2c3,0,3.2-0.1,3.2-2v-7.3c0-6.7-0.1-7.6-3.9-8l-1.2-0.1c-0.4-0.3-0.3-1.4,0.1-1.6c2.9,0.1,5.1,0.2,7.7,0.2
		c2.5,0,4.6-0.1,7.5-0.2c0.4,0.2,0.5,1.3,0.1,1.6l-1.3,0.1c-3.7,0.4-3.8,1.3-3.8,8v22.8c0,6.7,0.1,7.5,3.8,7.9l1.5,0.2
		c0.4,0.3,0.3,1.4-0.1,1.6c-3-0.1-5.2-0.2-7.7-0.2c-2.6,0-4.9,0.1-7.7,0.2c-0.4-0.2-0.5-1.2-0.1-1.6l1.2-0.2
		c3.9-0.6,3.9-1.3,3.9-7.9v-8.9c0-1.9-0.1-2-3.2-2H272.3L272.3,63.4z"/>
	<path d="M316.5,59.9c-4.2,0-7.3,4-7.3,11c0,5.8,2.6,12,8.2,12c5.6,0,7.3-5.8,7.3-10.7C324.7,66.8,322.5,59.9,316.5,59.9L316.5,59.9
		z M330.1,71.1c0,7.9-5.5,13.6-13.4,13.6c-7.3,0-13-5.1-13-13.1c0-8,6-13.7,13.5-13.7C324.3,58,330.1,63.3,330.1,71.1L330.1,71.1z"
		/>
	<path d="M391.5,61.6c-1.1,0-1.1,0.2-1.1,1.5v11.9c0,3.7,0.4,7,4.6,7c0.6,0,1.2-0.1,1.7-0.3c0.6-0.2,1.4-0.9,1.6-0.9
		c0.5,0,0.8,0.7,0.6,1.1c-1.1,1.3-3.4,2.9-6.7,2.9c-5.5,0-6.6-3-6.6-6.9V63.4c0-1.7-0.1-1.8-1.3-1.8h-1.8c-0.4-0.3-0.4-1-0.2-1.3
		c1.8-0.6,3.4-1.4,4.1-2c0.8-0.8,2-2.5,2.7-3.7c0.3-0.1,1.1-0.1,1.3,0.3v2.9c0,1.1,0.1,1.2,1.1,1.2h7c0.8,0.6,0.6,2.3,0.1,2.7H391.5
		L391.5,61.6z"/>
	<path d="M412.1,59.9c-4.2,0-7.3,4-7.3,11c0,5.8,2.6,12,8.2,12c5.6,0,7.3-5.8,7.3-10.7C420.3,66.8,418.1,59.9,412.1,59.9L412.1,59.9
		z M425.7,71.1c0,7.9-5.5,13.6-13.4,13.6c-7.3,0-13-5.1-13-13.1c0-8,6-13.7,13.5-13.7C420,58,425.7,63.3,425.7,71.1L425.7,71.1z"/>
	<path d="M430.2,65.7c0-2.5,0-2.8-1.7-3.9l-0.6-0.4c-0.3-0.3-0.3-1,0.1-1.1c1.5-0.5,5.1-2.2,6.3-3.1c0.3,0,0.6,0.1,0.7,0.4
		c-0.1,1.5-0.1,2.4-0.1,3c0,0.4,0.3,0.7,0.7,0.7c2.7-1.6,5.6-3.2,8.9-3.2c5.3,0,7.4,3.6,7.4,7.9v10.9c0,4.6,0.1,5.2,2.4,5.5l1.4,0.2
		c0.4,0.3,0.3,1.4-0.1,1.6c-1.9-0.1-3.7-0.2-6-0.2c-2.3,0-4.2,0.1-5.9,0.2c-0.4-0.2-0.6-1.3-0.1-1.6l1.2-0.2c2.3-0.4,2.4-1,2.4-5.5
		v-9.5c0-3.6-1.6-6.3-6-6.3c-2.4,0-4.5,1-5.4,2.2c-0.8,1.1-1,2-1,3.8v9.7c0,4.6,0.1,5.1,2.4,5.5l1.1,0.2c0.4,0.3,0.3,1.4-0.1,1.6
		c-1.7-0.1-3.6-0.2-5.8-0.2c-2.3,0-4.2,0.1-6,0.2c-0.4-0.2-0.6-1.3-0.1-1.6l1.3-0.2c2.3-0.3,2.4-1,2.4-5.5V65.7L430.2,65.7z"/>
	<path d="M339.3,74.6c0,4.4,1.1,7.3,5.9,7.3c1.7,0,3.7-0.7,5.1-1.9c0.8-0.8,1.3-1.7,1.3-3.7V65.9c0-4.1-0.4-4.3-2.3-5l-0.8-0.3
		c-0.4-0.3-0.4-1.1,0.1-1.4c2.5-0.1,6-0.5,7.4-1.1c0.3,0.1,0.5,0.2,0.6,0.4c-0.1,1.2-0.2,3.2-0.2,5.5v10.7c0,5,0.2,6.9,2,6.9
		c0.8,0,1.6-0.1,2.5-0.3c0.4,0.3,0.4,1.6-0.1,1.8c-2.5,0.5-6.2,1.1-8.3,2.3c-0.3,0-0.6-0.2-0.8-0.4v-2.6c0-0.6-0.2-0.9-0.6-0.9
		c-1.9,1.2-5,3.3-8.8,3.3c-5.6,0-7.7-2.8-7.7-7.9V66.2c0-4,0-4.6-1.9-5.4l-0.8-0.3c-0.4-0.3-0.3-1.2,0.1-1.4
		c2.9-0.1,5.4-0.6,6.8-1.1c0.4,0.1,0.6,0.2,0.6,0.4c-0.1,1.1-0.2,2.4-0.2,5.5V74.6L339.3,74.6z"/>
	<path d="M378.2,59.1c0.6,1.4,1,3.4,1,5.1c-0.3,0.4-1.2,0.6-1.5,0.2c-1.1-2.8-3-4.6-5.6-4.6c-2.5,0-4.1,1.6-4.1,3.9
		c0,2.6,2.7,4,4.9,5.3c3.4,1.9,6.5,4.1,6.5,8.6c0,4.8-4.4,7.2-9.1,7.2c-3,0-5.2-0.6-6.8-1.9c-0.5-1.2-0.9-4.3-0.8-6.4
		c0.3-0.4,1.1-0.4,1.5-0.1c1.1,3.5,3.1,6.5,6.7,6.5c2.3,0,4.3-1.3,4.3-4.1c0-2.9-2.5-4.5-4.9-5.8c-3.7-2.1-6.3-4.3-6.3-7.8
		c0-4.6,3.8-7.2,8.6-7.2C375.3,58,377.7,58.6,378.2,59.1L378.2,59.1z"/>
	<path d="M246.2,82.3l-1.7-0.2c-2.3-0.3-2.4-1-2.4-5.5V65.9c0-4.4-2.2-8.2-8.2-8.2c-3.2,0-6.3,1.5-8.6,3.3c-0.2-0.1-0.3-0.6-0.3-1.2
		V46.5c0-2.8,0.1-6,0.2-7.9c-0.1-0.3-0.4-0.4-0.6-0.4c-2.3,1.2-5.3,2.2-6.9,2.7c-0.3,0.2-0.3,1.1,0,1.3l0.6,0.4c1.9,1.1,2,1.5,2,5.3
		v28.7c0,1.6,0,2.8-0.1,3.6c-0.7,1.9-2.6,1.7-3.9,1.7c-5.7-0.1-6.4-3.4-6.4-7.1V62.9c0-1.3,0.1-1.5,1.1-1.5h4.8
		c0.6-0.4,0.7-2.1-0.1-2.7h-4.7c-1.1,0-1.1-0.1-1.1-1.2v-5.3c-0.3-0.4-1.3-0.2-1.5,0c-0.8,1.5-1.3,4.4-2.6,5.8
		c-0.5,0.6-2.1,1.3-3.9,1.9c-0.3,0.4-0.2,1.2,0.1,1.4h1.8c1.3,0,1.3,0.1,1.3,1.8v14.6c0.1,2.3,2.4,5.9,7.9,6.1c0,0,0,0,0,0
		c0.1,0,0.3,0,0.4,0c0.1,0,0.1,0,0.2,0c0.1,0,0.2,0,0.3,0c2.7,0,6.6,0,8.6,0c2.2,0,4.1,0.1,6,0.2c0.4-0.2,0.6-1.5,0.1-1.7l-1.3-0.2
		c-2.3-0.3-2.4-1-2.4-5.5V65.9c0-2.2,0.2-2.5,1.3-3.5c1.1-1,2.8-1.7,5-1.7c4.1,0,6,2.7,6,6.8v9.1c0,4.6-0.1,5.1-2.4,5.5l-1.3,0.2
		c-0.4,0.3-0.3,1.5,0.1,1.7c1.7-0.1,3.6-0.2,5.9-0.2c2.2,0,4.1,0.1,6.4,0.2C246.5,83.8,246.7,82.6,246.2,82.3L246.2,82.3z"/>
	<path d="M176.8,77.2c0,1.3-0.1,2.2-0.8,3c-0.6,0.6-2.6,1.6-3.8,1.6c-3.2,0-4-2.7-4-3.8c0.1-3.2,1.8-3.8,5.5-5.2
		c1.3-0.5,2.3-0.6,2.7-0.6c0.4,0,0.6,0.4,0.6,1.1L176.8,77.2L176.8,77.2z M200.6,82.3l-1.5-0.2c-2.3-0.3-2.4-0.9-2.4-5.5V46.9
		c0-2.8,0.1-5.9,0.2-7.8c-0.1-0.3-0.4-0.4-0.6-0.4c-2.3,1.2-5.2,2.1-6.8,2.6c-0.3,0.2-0.3,1.1,0,1.3l0.6,0.4
		c1.9,1.1,1.9,1.5,1.9,5.2v28.4c0,4.5-1,5.2-2.4,5.5c-0.4,0.1-0.8,0.1-1.2,0.2c-1.2,0.1-2.1,0-3-0.1c-3.8-0.5-4.1-2.7-4.1-5.8
		l0.4-10.9c0.2-4.7-2-7.4-6.5-7.4c-4.6,0-11.7,4.5-11.7,7.7c0,0.6,0.3,0.9,0.9,0.9c0.9,0,2.6-0.4,3.6-1.2c0.5-0.4,0.6-1.1,0.6-2.1
		c0.1-1.9,2.3-2.8,4-2.8c3.9,0,4.7,3.1,4.6,5.5l0,2.3c-0.1,0.9-0.4,1.5-1.1,1.7c-0.5,0.2-3.6,1-7.4,2.6c-3.9,1.7-5.3,3.6-5.3,6.1
		c0,1.8,0.8,3.3,2,4.4c1.1,0.9,2.6,1.4,4.4,1.4c1.8,0,3.1-0.8,4.5-1.6c1.3-0.7,2-1.3,2.5-1.3c0.4,0,0.7,0.5,1.2,0.9
		c1.3,1.1,2.6,1.3,3.9,1.3c2.7,0,5.5,0,6.6,0l0,0l6.1-0.1c2.2,0,6.1,0.2,6.1,0.2C201,83.8,201.1,82.6,200.6,82.3L200.6,82.3z"/>
	<path d="M39.2,57.8c0-3.9-0.1-11.2-1.2-13.1c-0.4-0.8-1.6-1.2-3.2-1.3l-1.6-0.1c-0.4-0.4-0.3-1.3,0.1-1.5c2.4,0.1,4.8,0.2,7.2,0.2
		c2.7,0,4.4-0.1,6.7-0.2c0.5,0.3,0.4,1.1,0.1,1.5l-1.5,0.1c-1.6,0.1-2.8,0.7-3.2,1.5c-0.9,2.1-0.9,9.4-0.9,12.9V65
		c0,5.5-0.9,11.4-4.4,15.2c-2.7,3-7.4,4.6-12.1,4.6c-4.4,0-8.8-0.8-11.9-3.5c-3.4-2.8-4.9-7.4-4.9-15v-15c0-6.6-0.1-7.7-3.8-8
		L3,43.2c-0.4-0.3-0.3-1.3,0.1-1.5c3.2,0.1,5.3,0.2,7.9,0.2c2.6,0,4.7-0.1,7.8-0.2c0.4,0.2,0.5,1.3,0.1,1.5l-1.5,0.1
		c-3.7,0.3-3.8,1.4-3.8,8v13.7c0,10.2,3.2,17,12.9,17c9.2,0,12.7-7.2,12.7-16.9V57.8L39.2,57.8z"/>
	<path d="M70.6,74.3c0,6.7,0.1,7.6,3.8,7.9l2,0.2c0.4,0.3,0.3,1.4-0.1,1.6c-3.6-0.1-5.8-0.2-8.3-0.2c-2.5,0-4.8,0.1-8.8,0.2
		c-0.4-0.2-0.5-1.3,0-1.6l2.3-0.2c3.6-0.3,3.9-1.3,3.9-7.9V45.9c0-2,0-2-1.9-2H60c-2.7,0-6.2,0.1-7.8,1.6c-1.5,1.4-2.2,2.8-2.9,4.4
		c-0.5,0.4-1.4,0.1-1.6-0.4c1-2.9,2-6.9,2.4-9.5c0.2-0.1,1-0.2,1.2,0c0.4,2,2.5,2,5.4,2h25.7c3.4,0,4-0.1,5-1.8
		c0.3-0.1,1-0.1,1.1,0.2c-0.7,2.6-1.1,7.7-1,9.6c-0.3,0.5-1.3,0.5-1.7,0.1c-0.2-1.6-0.6-3.9-1.6-4.6c-1.5-1.1-3.9-1.6-7.4-1.6h-4.5
		c-1.9,0-1.8,0.1-1.8,2.2V74.3L70.6,74.3z"/>
	<path d="M104.4,63.3c-3,0-3.2,0.1-3.2,2v9c0,6.7,0.3,7.6,3.9,7.9l1.8,0.2c0.4,0.3,0.3,1.4-0.1,1.6c-3.4-0.1-5.6-0.2-8.1-0.2
		c-2.7,0-4.9,0.1-7.4,0.2c-0.4-0.2-0.5-1.2-0.1-1.6l1.1-0.2c3.6-0.6,3.7-1.3,3.7-7.9V51.4c0-6.7-0.4-7.7-3.7-8l-1.7-0.1
		c-0.4-0.3-0.3-1.4,0.1-1.6c3.1,0.1,5.3,0.2,8,0.2c2.5,0,4.6-0.1,7.4-0.2c0.4,0.2,0.5,1.3,0.1,1.6l-1.2,0.1c-3.7,0.4-3.8,1.3-3.8,8
		v7.3c0,2,0.1,2,3.2,2h18.2c3,0,3.2-0.1,3.2-2v-7.3c0-6.7-0.1-7.6-3.9-8l-1.2-0.1c-0.4-0.3-0.3-1.4,0.1-1.6c2.9,0.1,5.1,0.2,7.7,0.2
		c2.5,0,4.6-0.1,7.5-0.2c0.4,0.2,0.5,1.3,0.1,1.6l-1.3,0.1c-3.7,0.4-3.8,1.3-3.8,8v22.9c0,6.7,0.1,7.5,3.8,7.9l1.5,0.2
		c0.4,0.3,0.3,1.4-0.1,1.6c-3-0.1-5.2-0.2-7.7-0.2c-2.6,0-4.9,0.1-7.7,0.2c-0.4-0.2-0.5-1.2-0.1-1.6l1.2-0.2
		c3.9-0.6,3.9-1.3,3.9-7.9v-9c0-1.9-0.1-2-3.2-2H104.4L104.4,63.3z"/>
	<path d="M147,65.6c4.7,0,6.1-0.3,6.6-0.6c0.2-0.1,0.4-0.4,0.4-1.2c0-1.8-1.2-4-4.9-4c-3.7,0-7,3.4-7,5.5c0,0.1,0,0.3,0.4,0.3H147
		L147,65.6z M143.1,67.5c-1.7,0-1.7,0.1-1.7,1.7c0,6.4,3.7,11.9,10.5,11.9c2.1,0,3.9-0.6,5.8-3.1c0.6-0.2,1.1,0.2,1.1,0.8
		c-2.1,4.3-6.7,5.9-10,5.9c-4.1,0-7.4-1.8-9.2-4.2c-1.9-2.5-2.7-5.5-2.7-8.2c0-7.8,5.1-14.3,12.8-14.3c5.5,0,9,3.7,9,7.6
		c0,0.9-0.1,1.4-0.3,1.7c-0.2,0.4-1.1,0.4-3.7,0.4H143.1L143.1,67.5z"/>
	<path d="M238.2,41.8c0.7,0,0.9-0.3,0.9-0.7c0-0.4-0.2-0.5-0.8-0.5h-0.9v1.2H238.2L238.2,41.8z M237.4,42.5v2.1h-0.7v-4.8h1.5
		c0.9,0,1.8,0.2,1.8,1.3c0,0.5-0.3,1-1,1.1v0c0.7,0.1,0.7,0.4,0.8,0.9c0.1,0.5,0.1,0.9,0.3,1.4h-0.9c-0.1-0.3-0.1-0.6-0.2-0.8
		c-0.1-0.4-0.1-0.8-0.3-1c-0.2-0.2-0.4-0.2-0.7-0.2H237.4L237.4,42.5z M241.6,42.2c0-1.8-1.5-3.3-3.3-3.3c-1.8,0-3.3,1.5-3.3,3.3
		c0,1.8,1.5,3.3,3.3,3.3C240.1,45.6,241.6,44.1,241.6,42.2L241.6,42.2z M234.2,42.2c0-2.2,1.8-4,4.1-4c2.2,0,4,1.8,4,4
		c0,2.2-1.8,4.1-4,4.1C236,46.3,234.2,44.5,234.2,42.2L234.2,42.2z"/>
	<path d="M272.1,63.3c-3,0-3.2,0.1-3.2,2v8.9c0,6.7,0.3,7.6,3.9,7.9l1.8,0.2c0.4,0.3,0.3,1.4-0.1,1.6c-3.4-0.1-5.6-0.2-8.1-0.2
		c-2.7,0-4.9,0.1-7.4,0.2c-0.4-0.2-0.5-1.2-0.1-1.6l1.1-0.2c3.6-0.6,3.7-1.3,3.7-7.9V51.4c0-6.7-0.4-7.7-3.7-8l-1.7-0.1
		c-0.4-0.3-0.3-1.4,0.1-1.6c3.1,0.1,5.3,0.2,8,0.2c2.5,0,4.6-0.1,7.4-0.2c0.4,0.2,0.5,1.3,0.1,1.6l-1.2,0.1c-3.7,0.4-3.8,1.3-3.8,8
		v7.3c0,2,0.1,2,3.2,2h18.2c3,0,3.2-0.1,3.2-2v-7.3c0-6.7-0.1-7.6-3.9-8l-1.2-0.1c-0.4-0.3-0.3-1.4,0.1-1.6c2.9,0.1,5.1,0.2,7.7,0.2
		c2.5,0,4.6-0.1,7.5-0.2c0.4,0.2,0.5,1.3,0.1,1.6l-1.3,0.1c-3.7,0.4-3.8,1.3-3.8,8v22.8c0,6.7,0.1,7.5,3.8,7.9l1.5,0.2
		c0.4,0.3,0.3,1.4-0.1,1.6c-3-0.1-5.2-0.2-7.7-0.2c-2.6,0-4.9,0.1-7.7,0.2c-0.4-0.2-0.5-1.2-0.1-1.6l1.2-0.2
		c3.9-0.6,3.9-1.3,3.9-7.9v-8.9c0-1.9-0.1-2-3.2-2H272.1L272.1,63.3z"/>
	<path d="M316.3,59.8c-4.2,0-7.3,4-7.3,11c0,5.8,2.6,12,8.2,12c5.6,0,7.3-5.8,7.3-10.7C324.5,66.6,322.3,59.8,316.3,59.8L316.3,59.8
		z M329.9,71c0,7.9-5.5,13.6-13.4,13.6c-7.3,0-13-5.1-13-13.1c0-8,6-13.7,13.5-13.7C324.1,57.9,329.9,63.2,329.9,71L329.9,71z"/>
	<path d="M391.3,61.4c-1.1,0-1.1,0.2-1.1,1.5v11.9c0,3.7,0.4,7,4.6,7c0.6,0,1.2-0.1,1.7-0.3c0.6-0.2,1.4-0.9,1.6-0.9
		c0.5,0,0.8,0.7,0.6,1.1c-1.1,1.3-3.4,2.9-6.7,2.9c-5.5,0-6.6-3-6.6-6.9V63.3c0-1.7-0.1-1.8-1.3-1.8h-1.8c-0.4-0.3-0.4-1-0.2-1.3
		c1.8-0.6,3.4-1.4,4.1-2c0.8-0.8,2-2.5,2.7-3.7c0.3-0.1,1.1-0.1,1.3,0.3v2.9c0,1.1,0.1,1.2,1.1,1.2h7c0.8,0.6,0.6,2.3,0.1,2.7H391.3
		L391.3,61.4z"/>
	<path d="M411.9,59.8c-4.2,0-7.3,4-7.3,11c0,5.8,2.6,12,8.2,12c5.6,0,7.3-5.8,7.3-10.7C420.1,66.6,417.9,59.8,411.9,59.8L411.9,59.8
		z M425.5,71c0,7.9-5.5,13.6-13.4,13.6c-7.3,0-13-5.1-13-13.1c0-8,6-13.7,13.5-13.7C419.8,57.9,425.5,63.2,425.5,71L425.5,71z"/>
	<path d="M430,65.5c0-2.5,0-2.8-1.7-3.9l-0.6-0.4c-0.3-0.3-0.3-1,0.1-1.1c1.5-0.5,5.1-2.2,6.3-3.1c0.3,0,0.6,0.1,0.7,0.4
		c-0.1,1.5-0.1,2.4-0.1,3c0,0.4,0.3,0.7,0.7,0.7c2.7-1.6,5.7-3.2,8.9-3.2c5.3,0,7.4,3.6,7.4,7.9v10.9c0,4.6,0.1,5.2,2.4,5.5l1.4,0.2
		c0.4,0.3,0.3,1.4-0.1,1.6c-1.9-0.1-3.7-0.2-6-0.2c-2.3,0-4.2,0.1-5.9,0.2c-0.4-0.2-0.6-1.3-0.1-1.6l1.2-0.2c2.3-0.4,2.4-1,2.4-5.5
		v-9.5c0-3.6-1.7-6.3-6-6.3c-2.4,0-4.5,1-5.4,2.2c-0.8,1.1-1,2-1,3.8v9.7c0,4.6,0.1,5.1,2.4,5.5l1.1,0.2c0.4,0.3,0.3,1.4-0.1,1.6
		c-1.7-0.1-3.6-0.2-5.8-0.2c-2.3,0-4.2,0.1-6,0.2c-0.4-0.2-0.6-1.3-0.1-1.6l1.3-0.2c2.3-0.3,2.4-1,2.4-5.5V65.5L430,65.5z"/>
	<path d="M339.1,74.4c0,4.4,1.1,7.3,5.9,7.3c1.7,0,3.7-0.7,5.1-1.9c0.8-0.8,1.3-1.7,1.3-3.7V65.7c0-4.1-0.4-4.3-2.3-5l-0.8-0.3
		c-0.4-0.3-0.4-1.1,0.1-1.4c2.5-0.1,6-0.5,7.4-1.1c0.3,0.1,0.5,0.2,0.6,0.4c-0.1,1.2-0.2,3.2-0.2,5.5v10.7c0,5,0.2,6.9,2,6.9
		c0.8,0,1.6-0.1,2.5-0.3c0.4,0.3,0.4,1.6-0.1,1.8c-2.5,0.5-6.2,1.1-8.3,2.3c-0.3,0-0.6-0.2-0.8-0.4v-2.6c0-0.6-0.2-0.9-0.6-0.9
		c-1.9,1.2-5,3.3-8.8,3.3c-5.6,0-7.7-2.8-7.7-7.9V66.1c0-4,0-4.6-1.9-5.4l-0.8-0.3c-0.4-0.3-0.3-1.2,0.1-1.4
		c2.9-0.1,5.4-0.6,6.8-1.1c0.4,0.1,0.6,0.2,0.6,0.4c-0.1,1.1-0.2,2.4-0.2,5.5V74.4L339.1,74.4z"/>
	<path d="M378.1,59c0.6,1.4,1,3.4,1,5.1c-0.3,0.4-1.2,0.6-1.5,0.2c-1.1-2.8-3-4.6-5.6-4.6c-2.5,0-4.1,1.6-4.1,3.9
		c0,2.6,2.7,4,4.9,5.3c3.4,1.9,6.5,4.1,6.5,8.6c0,4.8-4.4,7.2-9.1,7.2c-3,0-5.2-0.6-6.8-1.9c-0.5-1.2-0.9-4.3-0.8-6.4
		c0.3-0.4,1.1-0.4,1.5-0.1c1.1,3.5,3.1,6.5,6.7,6.5c2.3,0,4.3-1.3,4.3-4.1c0-2.9-2.5-4.5-4.9-5.8c-3.7-2.1-6.3-4.3-6.3-7.8
		c0-4.6,3.8-7.2,8.6-7.2C375.1,57.9,377.5,58.5,378.1,59L378.1,59z"/>
</g>
</svg>
