<?xml version="1.0" encoding="UTF-8"?>
<svg xmlns="http://www.w3.org/2000/svg" viewBox="0 0 98.3 114">
  <defs>
    <style>
      .cls-1 {
        fill: #ac624d;
      }

      .cls-1, .cls-2 {
        stroke-width: 0px;
      }

      .cls-3 {
        isolation: isolate;
      }

      .cls-2 {
        fill: #ffe382;
      }

      .cls-4 {
        mix-blend-mode: multiply;
      }
    </style>
  </defs>
  <g class="cls-3">
    <g id="Layer_2" data-name="Layer 2">
      <g id="Icons">
        <g>
          <g class="cls-4">
            <rect class="cls-2" x="0" y="0" width="98.3" height="114" rx="25" ry="25"/>
          </g>
          <g class="cls-4">
            <circle class="cls-1" cx="17.83" cy="20.17" r="5.03"/>
          </g>
          <g class="cls-4">
            <path class="cls-1" d="M78.71,26.17h-41.86c-3.31,0-6-2.69-6-6s2.69-6,6-6h41.86c3.31,0,6,2.69,6,6s-2.69,6-6,6Z"/>
          </g>
          <g class="cls-4">
            <circle class="cls-1" cx="17.83" cy="43.16" r="5.03"/>
          </g>
          <g class="cls-4">
            <path class="cls-1" d="M78.71,49.16h-41.86c-3.31,0-6-2.69-6-6s2.69-6,6-6h41.86c3.31,0,6,2.69,6,6s-2.69,6-6,6Z"/>
          </g>
          <g class="cls-4">
            <circle class="cls-1" cx="17.83" cy="66.15" r="5.03"/>
          </g>
          <g class="cls-4">
            <path class="cls-1" d="M78.71,72.15h-41.86c-3.31,0-6-2.69-6-6s2.69-6,6-6h41.86c3.31,0,6,2.69,6,6s-2.69,6-6,6Z"/>
          </g>
          <g class="cls-4">
            <circle class="cls-1" cx="17.83" cy="89.14" r="5.03"/>
          </g>
          <g class="cls-4">
            <path class="cls-1" d="M78.71,95.14h-41.86c-3.31,0-6-2.69-6-6s2.69-6,6-6h41.86c3.31,0,6,2.69,6,6s-2.69,6-6,6Z"/>
          </g>
        </g>
      </g>
    </g>
  </g>
</svg>