<?xml version="1.0" encoding="UTF-8"?>
<svg xmlns="http://www.w3.org/2000/svg" viewBox="0 0 105.8 125.76">
  <defs>
    <style>
      .cls-1 {
        fill: #ac624d;
      }

      .cls-1, .cls-2 {
        stroke-width: 0px;
      }

      .cls-2 {
        fill: #fbc42d;
      }

      .cls-3 {
        isolation: isolate;
      }

      .cls-4 {
        mix-blend-mode: multiply;
      }
    </style>
  </defs>
  <g class="cls-3">
    <g id="Layer_2" data-name="Layer 2">
      <g id="Icons">
        <g>
          <g class="cls-4">
            <path class="cls-1" d="M95.56,72.23c.75-2.18,1.16-4.51,1.16-6.94h0c0-11.81-9.57-21.38-21.38-21.38h-13.68c-11.81,0-21.38,9.57-21.38,21.38h0c0,2.43.41,4.77,1.16,6.94-6.26,5.33-10.23,13.27-10.23,22.14v2.31c0,16.06,13.02,29.08,29.08,29.08h16.41c16.06,0,29.08-13.02,29.08-29.08v-2.31c0-8.87-3.97-16.8-10.23-22.14Z"/>
          </g>
          <g class="cls-4">
            <circle class="cls-2" cx="68.51" cy="26.28" r="17.63"/>
          </g>
          <g>
            <g class="cls-4">
              <path class="cls-1" d="M41.25,35.19h-20.03C9.5,35.19,0,44.69,0,56.41v17.93c0,8.04,4.47,15.03,11.05,18.63v15.51c0,9.54,7.73,17.27,17.27,17.27h5.83c9.54,0,17.27-7.73,17.27-17.27v-15.51c6.59-3.6,11.05-10.6,11.05-18.63v-17.93c0-11.72-9.5-21.23-21.23-21.23Z"/>
            </g>
            <g class="cls-4">
              <circle class="cls-2" cx="31.24" cy="17.63" r="17.63"/>
            </g>
          </g>
        </g>
      </g>
    </g>
  </g>
</svg>