<?xml version="1.0" encoding="utf-8"?>
<!-- Generator: Adobe Illustrator 28.0.0, SVG Export Plug-In . SVG Version: 6.00 Build 0)  -->
<svg version="1.1" id="Layer_1" xmlns="http://www.w3.org/2000/svg" xmlns:xlink="http://www.w3.org/1999/xlink" x="0px" y="0px"
	 viewBox="0 0 681.3 225.1" style="enable-background:new 0 0 681.3 225.1;" xml:space="preserve">
<style type="text/css">
	.st0{fill:#4F352E;}
	.st1{fill:#F2F2F3;}
	.st2{fill:#F8BF2A;}
	.st3{fill:#FEDF80;}
	.st4{clip-path:url(#SVGID_00000046340943345602927350000005836949085519569584_);fill:#4F352E;}
</style>
<g>
	<g>
		<path class="st0" d="M278.7,33.3h39.2V42h-29.2v23.4h24.9V74h-24.9v30.4h-10V33.3z"/>
		<path class="st0" d="M351.9,72.6h2.2v-0.9c0-8.4-4.7-11.2-11.2-11.2c-7.9,0-14.2,4.9-14.2,4.9l-4-7.2c0,0,7.4-6,19-6
			c12.9,0,20.2,7.1,20.2,20v32.2h-9.1v-4.8c0-2.3,0.2-4,0.2-4h-0.2c0,0-4.1,10.1-16.3,10.1c-8.8,0-17.3-5.3-17.3-15.5
			C321.2,73.3,343.4,72.6,351.9,72.6z M340.6,97.8c8.3,0,13.6-8.7,13.6-16.2V80h-2.5c-7.4,0-20.7,0.5-20.7,9.7
			C331.1,93.8,334.3,97.8,340.6,97.8z"/>
	</g>
	<g>
		<path class="st0" d="M375.6,62H369v-7.9h7V39.5h9.5v14.7h12.3V62h-12.3v22.7c0,10.2,7.2,11.5,10.9,11.5c1.4,0,2.3-0.2,2.3-0.2v8.7
			c0,0-1.4,0.2-3.4,0.2c-6.5,0-19.5-2-19.5-19V62z"/>
		<path class="st0" d="M407.1,33.3h9.8v26.1c0,2.4-0.2,4.2-0.2,4.2h0.2c2.2-4.9,8.7-11.4,18.8-11.4c12,0,17.5,6.5,17.5,19.5v32.6
			h-9.8V74c0-7.2-1.5-12.8-9.7-12.8c-7.7,0-14,5.2-16.1,12.6c-0.6,2-0.8,4.3-0.8,6.8v23.9h-9.8V33.3z"/>
		<path class="st0" d="M487.5,52.3c14.4,0,22.1,10.7,22.1,23.9c0,1.3-0.3,4.2-0.3,4.2H472c0.5,11.2,8.5,16.8,17.5,16.8
			c8.8,0,15.1-5.9,15.1-5.9l4,7.2c0,0-7.6,7.3-19.8,7.3c-16,0-27-11.6-27-26.7C462,62.7,472.9,52.3,487.5,52.3z M499.5,73
			c-0.3-8.8-5.7-13-12.3-13c-7.5,0-13.5,4.6-14.9,13H499.5z"/>
		<path class="st0" d="M519,53.5h9.5v8.9c0,2.1-0.2,3.8-0.2,3.8h0.2c2.3-7.5,8.3-13.3,16.1-13.3c1.3,0,2.5,0.2,2.5,0.2v9.7
			c0,0-1.3-0.3-2.8-0.3c-6.2,0-12,4.4-14.3,12c-0.9,2.9-1.2,6-1.2,9.2v20.9H519V53.5z"/>
		<path class="st0" d="M556.2,32.1h9.5l-6.5,19.6h-7.3L556.2,32.1z"/>
	</g>
	<g>
		<path class="st0" d="M570.9,91.3c0,0,5.7,5.9,14.6,5.9c4.2,0,8.5-2.2,8.5-6.3c0-9.4-26.2-7.5-26.2-24.1c0-9.3,8.3-14.5,18.4-14.5
			c11.2,0,16.4,5.6,16.4,5.6l-3.9,7.4c0,0-4.5-4.5-12.6-4.5c-4.2,0-8.4,1.8-8.4,6.2c0,9.2,26.2,7.2,26.2,23.9
			c0,8.5-7.3,14.8-18.4,14.8c-12.5,0-19.3-7.5-19.3-7.5L570.9,91.3z"/>
	</g>
	<g>
		<path class="st0" d="M278.7,125.2h26c13,0,22.4,8.8,22.4,22.3s-9.4,22.6-22.4,22.6h-16v26.3h-10V125.2z M303.1,161.4
			c8.6,0,13.8-5.3,13.8-13.9s-5.2-13.6-13.7-13.6h-14.5v27.5H303.1z"/>
		<path class="st0" d="M334.8,125.2h9.8v55.5c0,6.1,2.4,7.3,5.4,7.3c0.9,0,1.7-0.1,1.7-0.1v8.7c0,0-1.5,0.2-3.2,0.2
			c-5.5,0-13.7-1.5-13.7-14.3V125.2z"/>
		<path class="st0" d="M386.3,164.5h2.2v-0.9c0-8.4-4.7-11.2-11.2-11.2c-7.9,0-14.2,4.9-14.2,4.9l-4-7.2c0,0,7.4-6,19-6
			c12.9,0,20.2,7.1,20.2,20v32.2h-9.1v-4.8c0-2.3,0.2-4,0.2-4h-0.2c0,0-4.1,10.1-16.3,10.1c-8.8,0-17.3-5.3-17.3-15.5
			C355.6,165.2,377.7,164.5,386.3,164.5z M375,189.7c8.3,0,13.6-8.7,13.6-16.2v-1.6h-2.5c-7.4,0-20.7,0.5-20.7,9.7
			C365.4,185.7,368.7,189.7,375,189.7z"/>
	</g>
	<g>
		<path class="st0" d="M404.3,206.9c0,0,2.8,2.1,5.9,2.1c3.9,0,7.3-2.8,9.2-7.5l2.5-5.8l-21.4-50.4h11l12.8,33.4
			c1,2.6,1.9,6.1,1.9,6.1h0.2c0,0,0.8-3.4,1.7-6l12.4-33.5h10.6l-23.9,60.2c-3.1,7.9-9.4,12-16.5,12c-5.7,0-9.9-3.1-9.9-3.1
			L404.3,206.9z"/>
		<path class="st0" d="M457,125.2h9.8v23.3c0,2.5-0.2,4.3-0.2,4.3h0.2c0,0,4.3-8.7,16.3-8.7c13.7,0,22.4,10.9,22.4,26.7
			c0,16.2-9.8,26.7-23.2,26.7c-11.4,0-16-8.8-16-8.8h-0.2c0,0,0.2,1.6,0.2,3.8v3.7H457V125.2z M480.9,189.2
			c8.1,0,14.7-6.7,14.7-18.2c0-11.1-5.9-18.2-14.4-18.2c-7.7,0-14.7,5.3-14.7,18.3C466.5,180.1,471.2,189.2,480.9,189.2z"/>
		<path class="st0" d="M538.8,144.1c15.2,0,27.5,11.2,27.5,26.6c0,15.5-12.3,26.8-27.5,26.8c-15.2,0-27.5-11.3-27.5-26.8
			C511.3,155.3,523.6,144.1,538.8,144.1z M538.8,189.1c9.7,0,17.5-7.7,17.5-18.3c0-10.6-7.9-18.1-17.5-18.1
			c-9.6,0-17.5,7.6-17.5,18.1C521.3,181.4,529.3,189.1,538.8,189.1z"/>
		<path class="st0" d="M599.3,144.1c15.2,0,27.5,11.2,27.5,26.6c0,15.5-12.3,26.8-27.5,26.8c-15.2,0-27.5-11.3-27.5-26.8
			C571.8,155.3,584.1,144.1,599.3,144.1z M599.3,189.1c9.7,0,17.5-7.7,17.5-18.3c0-10.6-7.9-18.1-17.5-18.1
			c-9.6,0-17.5,7.6-17.5,18.1C581.8,181.4,589.7,189.1,599.3,189.1z"/>
		<path class="st0" d="M636,125.2h9.8v38.9h7.2l13.9-18.7h11.1L661,167.8v0.2l18.8,28.3h-11.4l-15.3-24h-7.4v24H636V125.2z"/>
	</g>
	<path class="st1" d="M58.3,222.7c-30.8,0-55.9-25.1-55.9-55.9V58.3c0-30.8,25.1-55.9,55.9-55.9h108.5c30.8,0,55.9,25.1,55.9,55.9
		v108.5c0,30.8-25.1,55.9-55.9,55.9H58.3L58.3,222.7z"/>
	<path class="st2" d="M4.4,87.2c0,0,1.3,0,19,0c17.7,0,32.8-27.7,61.3-27.7c14.9,0,23.6,1.3,24.4,17h30.5c6.3,0,11.4,5.2,11.4,11.6
		v1.4c0,6.4-5.1,11.6-11.4,11.6h1.7c7.5,0,13.6,6.2,13.6,13.9c0,7.7-6.1,13.9-13.6,13.9h1.5c6.3,0,11.4,5.2,11.4,11.6v1.4
		c0,6.4-5.1,11.6-11.4,11.6h-5.7c6.3,0,11.4,5.2,11.4,11.6c0,6.4-5.1,11.6-11.4,11.6h-22.8c0,0-44.4,0-55.8,0
		c-10.3,0-15.8-8.1-20.6-13.5c-2.3-2.6-4.5-4.5-6.9-4.5c-7.5,0-26.5,0-26.5,0V87.2L4.4,87.2z"/>
	<path class="st3" d="M222.7,110.3c0,0,0.5,0.2-7.5,0.2c-8,0-14.8-12.3-27.7-12.3c-6.7,0-10.6,0.6-11,7.5h-13.8
		c-2.8,0-5.1,2.3-5.1,5.1v0.6c0,2.8,2.3,5.1,5.1,5.1h-0.8c-3.4,0-6.1,2.8-6.1,6.1c0,3.4,2.8,6.1,6.1,6.1h-0.7
		c-2.8,0-5.1,2.3-5.1,5.1v0.6c0,2.8,2.3,5.1,5.1,5.1h2.6c-2.8,0-5.1,2.3-5.1,5.1c0,2.8,2.3,5.1,5.1,5.1h10.3c0,0,14.3,0,19.4,0
		c4.6,0,10.3-3.6,12.4-6c1.1-1.1,2-2,3.1-2c3.4,0,13.5-0.2,13.5-0.2V110.3L222.7,110.3z"/>
	<path class="st0" d="M175.9,72.4c-0.5,0-1.1-0.3-1.4-0.7c-0.5-0.8-0.3-1.8,0.5-2.2l23.7-15c0.8-0.5,1.8-0.3,2.2,0.5
		c0.5,0.8,0.3,1.8-0.5,2.2l-23.7,15C176.5,72.4,176.2,72.4,175.9,72.4L175.9,72.4z"/>
	<path class="st0" d="M161.5,67.4c-0.7,0-1.3-0.4-1.5-1.1l-9-26.6c-0.3-0.8,0.2-1.8,1-2c0.8-0.3,1.8,0.2,2,1l9,26.6
		c0.3,0.8-0.2,1.8-1,2C161.9,67.3,161.7,67.4,161.5,67.4L161.5,67.4z"/>
	<g>
		<defs>
			<rect id="SVGID_1_" x="0.1" y="0" width="681.2" height="225.1"/>
		</defs>
		<clipPath id="SVGID_00000080903439001838038290000002212473879778710428_">
			<use xlink:href="#SVGID_1_"  style="overflow:visible;"/>
		</clipPath>
		<path style="clip-path:url(#SVGID_00000080903439001838038290000002212473879778710428_);fill:#4F352E;" d="M168.4,69.8
			c-0.2,0-0.4,0-0.5-0.1c-0.8-0.3-1.3-1.2-1-2.1l9.7-27.4c0.3-0.8,1.2-1.3,2.1-1c0.8,0.3,1.3,1.2,1,2.1L170,68.7
			C169.7,69.4,169.1,69.8,168.4,69.8L168.4,69.8z"/>
		<path style="clip-path:url(#SVGID_00000080903439001838038290000002212473879778710428_);fill:#4F352E;" d="M220.3,166.8
			c0,29.5-23.9,53.5-53.5,53.5H58.3c-29.5,0-53.5-23.9-53.5-53.5V161h23.6c2,0,4.5,2.8,7.1,5.8c4.5,5.1,10.7,12.2,20.9,12.2h80.2
			c7.7,0,14-6.3,14-14c0-3.8-1.5-7.3-4-9.8c4.1-1.3,7.4-4.4,8.9-8.4c0.7,3.3,3.5,5.7,7,5.7h27.9c8.6,0,13.1-3.8,16-6.3
			c0.8-0.7,1.9-1.6,2.3-1.7h11.4V166.8L220.3,166.8z M4.8,89.6h15.9c8.7,0,16.7-5.8,25.1-11.9c10.3-7.4,21.9-15.9,37.4-15.9
			c16.4,0,22.5,1.5,22.5,17v37.8c0,7.9-5.4,12.1-9.4,12.1c-5.4,0-12.7-3.6-12.7-34.7c0-1.2-0.9-2.3-2.2-2.4
			c-1.2-0.1-2.4,0.7-2.6,1.9c-6.2,29.4-21.7,35.2-46.5,35.2v4.8c21.7,0,38.2-4.7,47-25.3c1.1,11.8,4.4,22.2,12.8,24.7
			c-1.3,2.3-2.1,4.9-2.1,7.4v1.5c0,4.8,2.4,9,6.1,11.6c-3.7,2.5-6.1,6.8-6.1,11.6c0,3.5,1.3,6.7,3.4,9.1H56.5
			c-8.1,0-13-5.6-17.3-10.5c-3.4-3.8-6.5-7.5-10.8-7.5H4.8V89.6L4.8,89.6z M110.7,98.6V78.8h28.6c5,0,9.2,4.1,9.2,9.1v1.5
			c0,5-4.1,9.2-9.2,9.2H110.7L110.7,98.6z M141,126.4h-32.9c1.6-2.6,2.6-5.9,2.6-9.8v-13.2H141c6.3,0,11.5,5.1,11.5,11.5
			C152.5,121.2,147.4,126.4,141,126.4L141,126.4z M145.9,165c0,5-4.1,9.1-9.2,9.1h-32.5c-5,0-9.2-4.1-9.2-9.1c0-5.1,4.1-9.2,9.2-9.2
			h32.5C141.8,155.8,145.9,159.9,145.9,165L145.9,165z M142.6,151h-38.4c-5,0-9.2-4.1-9.2-9.2v-1.5c0-2.4,1.2-5.1,3-6.9
			c1.9-0.3,3.8-1,5.6-2.2h39c5,0,9.2,4.1,9.2,9.2v1.5C151.8,146.9,147.6,151,142.6,151L142.6,151z M159.4,111.1c0-1.7,1.4-3,3-3
			h11.3v6.1h-11.3C160.8,114.1,159.4,112.8,159.4,111.1L159.4,111.1z M174.5,126.1h-12.7c-2,0-3.5-1.6-3.5-3.5c0-2,1.6-3.5,3.5-3.5
			h12.6c0.7,1.9,2,3.4,3.6,4.3C177.6,124.9,176.2,126.1,174.5,126.1L174.5,126.1z M176.1,144.5v0.9c0,1.3-1,2.3-2.3,2.3h-11.2
			c-1.2,0-2.3-1-2.3-2.3v-0.9c0-1.2,1-2.3,2.3-2.3h11.2C175.1,142.2,176.1,143.2,176.1,144.5L176.1,144.5z M172.8,137.4h-11.4
			c-1.8,0-3.2-1.5-3.2-3.2s1.5-3.2,3.2-3.2h11.4c1.8,0,3.2,1.5,3.2,3.2S174.6,137.4,172.8,137.4L172.8,137.4z M178.8,139.5
			c1.3-1.4,2.1-3.3,2.1-5.3c0-1.8-0.6-3.5-1.6-4.8c1.7-1.2,3-3,3.4-5.2c2.7-0.4,4.5-2,5.6-4c2.7,3.9,7.1,6,12.9,6v-4.8
			c-5.9,0-9.5-2.8-10.7-8.4c-0.2-1.1-1.2-1.9-2.4-1.9h0c-1.1,0-2.1,0.8-2.4,1.9c-1.1,4.9-2.2,6.5-4.3,6.5c-1,0-2.8-1.2-2.8-4v-8.7
			c0-5.6,1.6-6.2,8.7-6.2c6.4,0,11.2,3.5,15.8,6.8c3.9,2.8,7.6,5.5,11.9,5.5h5.3v26.8h-11.4c-2.1,0-3.6,1.3-5.4,2.8
			c-2.7,2.3-6.1,5.2-12.9,5.2h-10c0.2-0.7,0.4-1.5,0.4-2.3v-0.9C180.9,142.5,180.1,140.8,178.8,139.5L178.8,139.5z M4.8,58.3
			c0-29.5,23.9-53.5,53.5-53.5h108.5c29.5,0,53.5,23.9,53.5,53.5V108H215c-2.7,0-5.7-2.1-9.1-4.6c-4.8-3.4-10.7-7.7-18.7-7.7
			c-5.3,0-11.7,0-13.2,7.5h-11.6c-3,0-5.6,1.7-7,4.2c-1.6-3.1-4.2-5.7-7.3-7.2c3.1-2.6,5.1-6.5,5.1-10.8V88c0-7.7-6.3-14-14-14
			h-28.9c-1.7-15.7-12.5-17-27.1-17C66.2,57,53.9,65.9,43,73.8c-8.1,5.9-15.1,11-22.3,11H4.8V58.3L4.8,58.3z M166.8,0H58.3
			C26.1,0,0,26.2,0,58.3v108.5c0,32.1,26.1,58.3,58.3,58.3h108.5c32.1,0,58.3-26.1,58.3-58.3V58.3C225.1,26.2,198.9,0,166.8,0
			L166.8,0z"/>
	</g>
</g>
</svg>
