<?xml version="1.0" encoding="UTF-8"?>
<svg xmlns="http://www.w3.org/2000/svg" viewBox="0 0 78.71 123.59">
  <defs>
    <style>
      .cls-1 {
        fill: #ac624d;
      }

      .cls-1, .cls-2, .cls-3 {
        stroke-width: 0px;
      }

      .cls-2 {
        fill: #fbc42d;
      }

      .cls-4 {
        isolation: isolate;
      }

      .cls-3 {
        fill: #ffe382;
      }

      .cls-5 {
        mix-blend-mode: multiply;
      }
    </style>
  </defs>
  <g class="cls-4">
    <g id="Layer_2" data-name="Layer 2">
      <g id="Icons">
        <g>
          <g class="cls-5">
            <path class="cls-1" d="M67.91,67.09c.79-2.3,1.22-4.76,1.22-7.33h0c0-12.46-10.1-22.56-22.56-22.56h-14.43c-12.46,0-22.56,10.1-22.56,22.56h0c0,2.57.43,5.03,1.22,7.33-6.61,5.63-10.8,14-10.8,23.36v2.44c0,16.95,13.74,30.69,30.69,30.69h17.32c16.95,0,30.69-13.74,30.69-30.69v-2.44c0-9.36-4.19-17.73-10.8-23.36Z"/>
          </g>
          <g class="cls-5">
            <circle class="cls-2" cx="39.35" cy="18.6" r="18.6"/>
          </g>
          <g>
            <path class="cls-2" d="M61.36,74.63c0,5.3-2.14,10.08-5.6,13.54-1.33,1.33-2.84,2.45-4.51,3.35-2.69,1.45-5.76,2.26-9.04,2.26h-21.39c-10.58,0-19.16-8.58-19.16-19.16,0-.41.01-.82.04-1.23.13-2.13.62-4.18,1.41-6.06.97-2.35,2.39-4.48,4.17-6.24,3.46-3.47,8.25-5.61,13.54-5.61h21.39c10.57,0,19.15,8.58,19.15,19.15Z"/>
            <g class="cls-5">
              <path class="cls-2" d="M51.25,91.53c-2.69,1.45-5.76,2.26-9.04,2.26h-2.63c-.07-.21-.13-.42-.17-.64-1.78-8.96-4.88-16.28-8.82-21.07-2.14-2.64-4.54-4.52-7.1-5.51-4.9-1.88-9.16.15-11.86,2.18-2.64,1.98-6.39,1.45-8.38-1.2-.05-.07-.11-.15-.15-.22-1.81-2.62-1.24-6.22,1.35-8.16,6.14-4.62,13.04-6.28,19.77-4.84,1.19.25,2.37.6,3.55,1.05.07.03.15.06.22.09,11.15,4.4,19.58,17.26,23.16,35.34.05.24.08.47.1.7Z"/>
            </g>
            <circle class="cls-3" cx="15.91" cy="67.35" r="15.44"/>
          </g>
        </g>
      </g>
    </g>
  </g>
</svg>