<?xml version="1.0" encoding="UTF-8"?>
<svg xmlns="http://www.w3.org/2000/svg" viewBox="0 0 105.8 125.76">
  <defs>
    <style>
      .cls-1 {
        fill: #ac624d;
      }

      .cls-1, .cls-2, .cls-3 {
        stroke-width: 0px;
      }

      .cls-2 {
        fill: #fbc42d;
      }

      .cls-4 {
        isolation: isolate;
      }

      .cls-3 {
        fill: #ffe382;
      }

      .cls-5 {
        mix-blend-mode: multiply;
      }
    </style>
  </defs>
  <g class="cls-4">
    <g id="Layer_2" data-name="Layer 2">
      <g id="Icons">
        <g>
          <g>
            <g class="cls-5">
              <path class="cls-1" d="M95.56,72.23c.75-2.18,1.16-4.51,1.16-6.94h0c0-11.81-9.57-21.38-21.38-21.38h-13.68c-11.81,0-21.38,9.57-21.38,21.38h0c0,2.43.41,4.77,1.16,6.94-6.26,5.33-10.23,13.27-10.23,22.14v2.31c0,16.06,13.02,29.08,29.08,29.08h16.41c16.06,0,29.08-13.02,29.08-29.08v-2.31c0-8.87-3.97-16.8-10.23-22.14Z"/>
            </g>
            <g class="cls-5">
              <circle class="cls-2" cx="68.51" cy="26.28" r="17.63"/>
            </g>
            <g>
              <g class="cls-5">
                <path class="cls-1" d="M41.25,35.19h-20.03C9.5,35.19,0,44.69,0,56.41v17.93c0,8.04,4.47,15.03,11.05,18.63v15.51c0,9.54,7.73,17.27,17.27,17.27h5.83c9.54,0,17.27-7.73,17.27-17.27v-15.51c6.59-3.6,11.05-10.6,11.05-18.63v-17.93c0-11.72-9.5-21.23-21.23-21.23Z"/>
              </g>
              <g class="cls-5">
                <circle class="cls-2" cx="31.24" cy="17.63" r="17.63"/>
              </g>
            </g>
          </g>
          <g>
            <path class="cls-2" d="M76.15,73.65c0,4.8-1.94,9.13-5.08,12.27-1.2,1.2-2.58,2.22-4.08,3.04-2.44,1.31-5.22,2.05-8.19,2.05h-19.38c-9.59,0-17.36-7.77-17.36-17.36,0-.37,0-.74.04-1.11.12-1.93.56-3.79,1.27-5.49.88-2.13,2.17-4.06,3.78-5.66,3.14-3.14,7.47-5.09,12.27-5.09h19.38c9.58,0,17.35,7.77,17.35,17.35Z"/>
            <g class="cls-5">
              <path class="cls-2" d="M66.98,88.96c-2.44,1.31-5.22,2.05-8.19,2.05h-2.39c-.06-.19-.12-.38-.15-.58-1.61-8.11-4.42-14.75-7.99-19.09-1.94-2.39-4.11-4.09-6.43-4.99-4.44-1.71-8.29.14-10.74,1.98-2.39,1.8-5.79,1.31-7.59-1.08-.05-.06-.1-.14-.14-.2-1.64-2.38-1.12-5.64,1.22-7.39,5.57-4.18,11.82-5.69,17.91-4.38,1.08.23,2.15.54,3.22.95.06.03.14.05.2.08,10.1,3.98,17.74,15.64,20.98,32.02.05.22.07.42.09.63Z"/>
            </g>
            <circle class="cls-3" cx="34.96" cy="67.05" r="13.99"/>
          </g>
        </g>
      </g>
    </g>
  </g>
</svg>